<?xml version="1.0" encoding="utf-8"?>
<!-- Generator: Adobe Illustrator 24.0.2, SVG Export Plug-In . SVG Version: 6.00 Build 0)  -->
<svg version="1.1" id="Layer_1" xmlns="http://www.w3.org/2000/svg" xmlns:xlink="http://www.w3.org/1999/xlink" x="0px" y="0px"
	 viewBox="0 0 40 40" style="enable-background:new 0 0 40 40;" xml:space="preserve">
<style type="text/css">
	.st0{fill-opacity:0.94;}
	.st1{fill:#FFFFFF;}
</style>
<path class="st0" d="M0,2c0-1.1,0.9-2,2-2h36c1.1,0,2,0.9,2,2v36c0,1.1-0.9,2-2,2H2c-1.1,0-2-0.9-2-2V2z"/>
<path class="st1" d="M11.8,30c-0.2,0-0.5-0.1-0.7-0.3c-2.7-2.5-4.3-6.1-4.2-9.8c0.1-7.2,6-13,13.2-13c0,0,0.1,0,0.1,0
	c1.8,0,3.6,0.4,5.3,1.2c0.5,0.2,0.7,0.8,0.5,1.3c-0.2,0.5-0.8,0.7-1.3,0.5c-1.4-0.6-2.9-1-4.5-1c0,0-0.1,0-0.1,0C14,8.9,9,13.9,9,20
	c0,3.1,1.3,6.1,3.6,8.3c0.4,0.4,0.4,1,0.1,1.4C12.4,29.9,12.1,30,11.8,30z"/>
<path class="st1" d="M27.3,19.1c0.1,0.5,0.5,0.9,1,0.9c0,0,0.1,0,0.1,0c0.5-0.1,0.9-0.6,0.8-1.1c-0.5-3.9-3.3-7.1-7.1-7.9
	c-1.5-0.3-3-0.2-4.5,0.2c-0.5,0.2-0.8,0.7-0.6,1.2c0.2,0.5,0.7,0.8,1.2,0.7c1.1-0.4,2.4-0.4,3.5-0.2C24.7,13.5,26.9,16,27.3,19.1z"
	/>
<path class="st1" d="M12.2,23.1c-0.5,0-0.9-0.3-1-0.7c-0.5-1.5-0.6-3-0.2-4.5c0.3-1.3,0.9-2.5,1.7-3.6c0.3-0.4,1-0.5,1.5-0.2
	c0.5,0.3,0.6,0.9,0.2,1.4c-0.7,0.8-1.1,1.8-1.4,2.8c-0.3,1.2-0.2,2.4,0.2,3.6c0.2,0.5-0.1,1.1-0.7,1.2
	C12.4,23.1,12.3,23.1,12.2,23.1z"/>
<path class="st1" d="M21.8,29.2c-0.5,0-0.9-0.3-1-0.8c-0.1-0.5,0.2-1.1,0.8-1.2c2.1-0.4,4-1.8,5-3.7c0.3-0.5,0.9-0.7,1.4-0.4
	c0.5,0.3,0.7,0.9,0.4,1.4C27,27,24.7,28.7,22,29.2C21.9,29.2,21.8,29.2,21.8,29.2z"/>
<path class="st1" d="M18.6,33c0.4,0,0.8,0.1,1,0.1c3.6,0,6.9-1.3,9.4-3.7c2.5-2.4,3.9-5.6,4-9.1c0-3.1-1.1-6-3.1-8.4
	c-0.4-0.4-1-0.5-1.4-0.1c-0.4,0.4-0.5,1-0.1,1.4c1.7,2,2.6,4.5,2.6,7.1c-0.1,6-5.2,10.8-11.4,10.8c-0.2,0-0.5,0-0.9,0
	c-0.6,0-1.1,0.4-1.1,0.9C17.6,32.5,18.1,33,18.6,33z"/>
<path class="st1" d="M20.6,18.5c0.6,0.1,1,0.7,0.9,1.4c-0.1,0.6-0.7,1-1.4,0.9c-0.6-0.1-1-0.7-0.9-1.4C19.4,18.8,20,18.4,20.6,18.5z
	"/>
<path class="st1" d="M14.6,31.1c0,0.7,0.6,1.3,1.3,1.3c0.7,0,1.3-0.6,1.3-1.3V20.7l0-0.1c0-0.4,0-0.7,0.1-1c0.2-0.8,0.7-1.5,1.4-1.9
	c0.7-0.4,1.5-0.6,2.4-0.4c0.8,0.2,1.5,0.6,2,1.3c0.5,0.7,0.6,1.5,0.5,2.3c-0.4,1.6-2,2.7-3.7,2.4c-0.7-0.1-1.4,0.3-1.5,1
	c-0.1,0.7,0.3,1.3,1,1.5c3.1,0.6,6.2-1.3,6.8-4.3c0.3-1.5,0-2.9-0.8-4.2c-0.8-1.2-2.1-2.1-3.7-2.4c-1.5-0.3-3,0-4.3,0.8
	c-1.3,0.8-2.2,2.1-2.5,3.5c-0.1,0.5-0.1,1.1-0.1,1.6V31.1z"/>
</svg>
