<svg width="232" height="52" viewBox="0 0 232 52" fill="none" xmlns="http://www.w3.org/2000/svg">
<path d="M0 2.6C0 1.16406 1.15906 0 2.58884 0H49.188C50.6178 0 51.7768 1.16406 51.7768 2.6V49.4C51.7768 50.836 50.6178 52 49.188 52H2.58884C1.15906 52 0 50.836 0 49.4V2.6Z" fill="black" fill-opacity="0.94"/>
<path d="M15.3215 39C15.0022 39 14.6816 38.8841 14.4282 38.6494C10.9091 35.379 8.91633 30.749 8.96214 25.947C9.05098 16.5691 16.7069 9 26.0626 9C26.1175 9 26.1724 9 26.2272 9.0007C28.6142 9.02291 30.9199 9.5277 33.0799 10.5012C33.7408 10.7984 34.0358 11.5753 33.738 12.2371C33.4403 12.8981 32.6629 13.1925 32.002 12.8953C30.1759 12.0725 28.2241 11.6455 26.2022 11.6267C26.1556 11.626 26.1092 11.626 26.0626 11.626C18.1429 11.626 11.6622 18.0327 11.5872 25.9719C11.5483 30.0366 13.2357 33.9562 16.2155 36.7254C16.7458 37.2183 16.7763 38.0495 16.2835 38.5807C16.0252 38.859 15.6734 39 15.3215 39Z" fill="white"/>
<path d="M35.3463 24.8701C35.4256 25.5231 35.9638 26 36.5853 26C36.6369 26 36.6898 25.9966 36.7427 25.9898C37.4277 25.9011 37.913 25.2563 37.827 24.5495C37.2055 19.4269 33.4929 15.286 28.5888 14.2463C26.6613 13.8383 24.6547 13.9386 22.7854 14.537C22.1256 14.7484 21.7573 15.471 21.9623 16.1518C22.1665 16.8322 22.8661 17.2136 23.5266 17.0014C24.9938 16.5319 26.5701 16.4528 28.0856 16.7741C31.9397 17.5916 34.8576 20.8447 35.3463 24.8701Z" fill="white"/>
<path d="M15.8096 30C15.2253 30 14.6852 29.6492 14.5037 29.1024C13.8739 27.2037 13.7697 25.1664 14.2015 23.2091C14.5803 21.4921 15.3381 19.9119 16.4539 18.514C16.9044 17.9492 17.7611 17.832 18.3671 18.2515C18.973 18.671 19.0988 19.4688 18.6484 20.0331C17.7735 21.1299 17.1784 22.3707 16.8804 23.7221C16.5406 25.2606 16.6223 26.861 17.1161 28.351C17.3397 29.0223 16.9347 29.7354 16.2131 29.9428C16.0793 29.9811 15.9433 30 15.8096 30Z" fill="white"/>
<path d="M28.1738 38C27.569 38 27.0283 37.5706 26.9082 36.9511C26.7717 36.248 27.2283 35.5668 27.9281 35.4297C30.6968 34.8863 33.0621 33.1523 34.4191 30.6726C34.7625 30.045 35.5469 29.8158 36.1715 30.1602C36.7967 30.5053 37.0247 31.2941 36.6814 31.9217C34.9551 35.0777 31.9453 37.2845 28.4222 37.9753C28.339 37.9917 28.2557 38 28.1738 38Z" fill="white"/>
<path d="M24.1108 42.9339C24.6414 42.9775 25.0965 43 25.4637 43C30.0626 43 34.3933 41.2837 37.6595 38.1667C40.9404 35.0361 42.7714 30.8474 42.8147 26.3718C42.8531 22.3902 41.4374 18.5162 38.8281 15.4632C38.3611 14.9168 37.5289 14.8432 36.9684 15.2991C36.4093 15.7548 36.3338 16.5676 36.8009 17.1133C39.0095 19.6977 40.2074 22.9767 40.1746 26.3466C40.0993 34.1088 33.4998 40.4233 25.4637 40.4233C25.174 40.4233 24.7831 40.4042 24.3329 40.3661C23.6069 40.3081 22.9674 40.8334 22.906 41.542C22.8452 42.2513 23.3842 42.874 24.1108 42.9339Z" fill="white"/>
<path d="M26.6867 24.0309C27.4948 24.1973 28.0148 24.9908 27.849 25.8018C27.6833 26.6133 26.8933 27.1356 26.086 26.9691C25.2779 26.802 24.7573 26.0098 24.9237 25.1983C25.0895 24.3867 25.8787 23.8645 26.6867 24.0309Z" fill="white"/>
<path d="M18.9309 40.3651C18.9309 41.2677 19.6853 42 20.6168 42C21.5483 42 22.3028 41.2677 22.3028 40.3651V26.8802L22.3007 26.7954C22.2731 26.2869 22.3021 25.8427 22.3875 25.4378C22.6073 24.4009 23.2301 23.5089 24.1423 22.9263C25.0539 22.3437 26.1444 22.1399 27.2144 22.353C28.2844 22.5662 29.2041 23.1701 29.805 24.054C30.4057 24.938 30.6159 25.9963 30.3961 27.034C29.9428 29.1746 27.7774 30.5604 25.5692 30.1193C24.657 29.9383 23.7654 30.5068 23.578 31.3915C23.3913 32.2761 23.9783 33.1406 24.8905 33.3223C28.9189 34.1247 32.8716 31.5992 33.6991 27.692C34.1001 25.7993 33.7169 23.8684 32.6201 22.2548C31.524 20.6413 29.845 19.5382 27.8931 19.1501C25.9412 18.7618 23.9501 19.1326 22.2862 20.1956C20.6223 21.2593 19.4856 22.8868 19.0845 24.7797C18.9434 25.4478 18.8923 26.1486 18.9309 26.921V40.3651Z" fill="white"/>
<path d="M68.7039 37H74.0124V28.0479H78.7509C83.5964 28.0479 87.6223 25.6444 87.6223 20.4194C87.6223 15.8563 84.0951 13 78.8578 13H68.7039V37ZM74.0124 17.1103H78.1809C80.4255 17.1103 82.2781 18.0508 82.2781 20.5239C82.2781 22.9623 80.5323 23.9028 78.074 23.9028H74.0124V17.1103Z" fill="black" fill-opacity="0.94"/>
<path d="M88.6533 37H93.7246V29.3245C93.7246 24.5019 95.9082 23.5509 99.5708 23.6528V19C96.4717 19.034 94.5347 20.4943 93.7246 22.4981C93.7246 21.5472 93.6542 19.8151 93.5838 19.4075H88.618C88.6533 20.9019 88.6533 22.4302 88.6533 24.1962V37Z" fill="black" fill-opacity="0.94"/>
<path d="M115.467 19.3784H110.504V29.0757C110.504 32.6595 109.567 33.8892 107.311 33.8892C105.159 33.8892 104.534 32.2378 104.534 30.2351V19.3784H99.5708V31.2541C99.5708 35.7514 101.896 38 105.541 38C107.866 38 109.428 37.2973 110.504 35.4703C110.539 36.1027 110.573 37.0865 110.643 37.5784H115.502C115.467 35.9622 115.467 34.0297 115.467 32.3081V19.3784ZM106.131 16.4622V12H102.139V16.4622H106.131ZM112.968 16.4622V12H108.977V16.4622H112.968Z" fill="black" fill-opacity="0.94"/>
<path d="M116.498 19L122.695 37H127.977L134.421 19H129.386C127.801 24.2124 126.04 29.6332 125.512 32.5869H125.477C125.125 30.4324 123.681 25.1158 121.956 19H116.498Z" fill="black" fill-opacity="0.94"/>
<path d="M134.421 37H139.399V19.2603H134.421V37ZM139.399 16.3836V12H134.421V16.3836H139.399Z" fill="black" fill-opacity="0.94"/>
<path d="M140.395 22.9504H143.091V32.7669C143.091 36.0511 144.203 38 147.607 38C148.584 38 149.898 38 150.842 37.6391V34.1023C150.505 34.1383 150.033 34.1383 149.764 34.1383C148.315 34.1383 147.91 33.597 147.91 32.1895V22.9504H151.348V19.0526H147.91V14H143.091V19.0526H140.395V22.9504Z" fill="black" fill-opacity="0.94"/>
<path d="M154.444 17.6874V16.7286H154.81C155.145 16.7286 155.221 16.8614 155.221 17.1711C155.221 17.2891 155.236 17.5546 155.282 17.6874H155.876C155.845 17.5104 155.845 17.2891 155.845 17.1564C155.845 16.7581 155.693 16.5811 155.495 16.5074C155.678 16.4484 155.922 16.2419 155.922 15.9321C155.922 15.416 155.465 15.2242 154.916 15.2242H153.836V17.6874H154.444ZM154.444 15.6371H154.871C155.175 15.6371 155.282 15.7551 155.282 15.9616C155.282 16.2271 155.114 16.3009 154.871 16.3009H154.444V15.6371ZM154.84 14C153.379 14 152.343 15.1062 152.343 16.4926C152.343 17.9232 153.425 19 154.84 19C156.332 19 157.322 17.8939 157.322 16.4926C157.322 15.1505 156.332 14 154.84 14ZM154.84 14.5015C155.983 14.5015 156.743 15.3865 156.743 16.5074C156.743 17.6431 156.088 18.4837 154.84 18.4837C153.729 18.4837 152.907 17.5989 152.907 16.4926C152.907 15.4601 153.562 14.5015 154.84 14.5015Z" fill="black" fill-opacity="0.94"/>
<path d="M179.893 30.1368C179.433 31.5825 178.372 33.8745 174.904 33.8745C170.197 33.8745 168.746 29.5374 168.746 25.4471C168.746 21.0042 170.409 17.0903 174.762 17.0903C178.089 17.0903 179.398 18.9591 179.929 20.8632H185.202C184.6 16.7729 181.451 13 174.939 13C167.083 13 163.296 18.9591 163.296 25.6234C163.296 32.5346 166.941 38 174.691 38C180.814 38 184.246 34.6855 185.202 30.1368H179.893Z" fill="black" fill-opacity="0.94"/>
<path d="M206.125 38H211.09V14H203.712C201.712 20.1306 199.126 28.5602 198.54 31.6952H198.506C197.782 28.1422 195.713 20.27 193.851 14H186.197V38H190.886V29.3962C190.886 25.2859 190.783 20.3396 190.576 17.5181H190.748C191.783 22.3251 194.231 31.4165 195.989 38H200.368C202.643 30.4761 205.022 22.4993 206.125 17.5878H206.298C206.194 20.3048 206.125 24.9028 206.125 28.9782V38Z" fill="black" fill-opacity="0.94"/>
<path d="M212.086 30.5247C212.654 34.9676 215.955 38 222.167 38C228.628 38 232 34.9323 232 30.5247C232 27.0691 230.438 24.4598 223.339 22.7673C219.363 21.8858 218.333 21.1805 218.333 19.488C218.333 17.7602 219.611 16.8787 221.777 16.8787C224.936 16.8787 225.752 18.5007 226.036 20.0169H231.361C231.006 16.4556 228.415 13 221.919 13C216.133 13 212.938 15.8561 212.938 20.0874C212.938 23.3667 214.571 25.7997 221.244 27.3512C225.433 28.3032 226.604 29.1495 226.604 31.1594C226.604 32.9224 225.397 34.0508 222.558 34.0508C219.718 34.0508 217.978 32.9577 217.41 30.5247H212.086Z" fill="black" fill-opacity="0.94"/>
</svg>
